<svg xmlns="http://www.w3.org/2000/svg" width="38.448" height="38.448" viewBox="0 0 38.448 38.448">
  <path id="iconmonstr-twitter-4" d="M19.224,0A19.224,19.224,0,1,0,38.448,19.224,19.225,19.225,0,0,0,19.224,0Zm9.718,15.451A13.085,13.085,0,0,1,8.811,27.071a9.257,9.257,0,0,0,6.812-1.9,4.612,4.612,0,0,1-4.3-3.2,4.615,4.615,0,0,0,2.079-.078,4.608,4.608,0,0,1-3.691-4.571A4.59,4.59,0,0,0,11.8,17.9a4.608,4.608,0,0,1-1.424-6.144,13.061,13.061,0,0,0,9.484,4.808,4.6,4.6,0,0,1,7.842-4.2,9.178,9.178,0,0,0,2.922-1.117A4.62,4.62,0,0,1,28.6,13.792a9.179,9.179,0,0,0,2.642-.726A9.236,9.236,0,0,1,28.942,15.451Z" fill="#f6f6f6"/>
</svg>
