<svg xmlns="http://www.w3.org/2000/svg" width="38.449" height="38.449" viewBox="0 0 38.449 38.449">
  <path id="iconmonstr-gmail-4" d="M19.224,0A19.224,19.224,0,1,0,38.449,19.224,19.225,19.225,0,0,0,19.224,0Zm9.614,27.1a1.6,1.6,0,0,0,1.6-1.6V12.815a1.6,1.6,0,0,0-1.6-1.6H9.611a1.6,1.6,0,0,0-1.6,1.6V25.5a1.6,1.6,0,0,0,1.6,1.6Zm-9.614-5.687-8.731-6.059-.018,10.81h17.46V15.355l-8.712,6.059Zm8.289-9.266c-2.446,1.7-8.289,5.822-8.289,5.822l-8.335-5.822H27.513Z" fill="#f6f6f6" fill-rule="evenodd"/>
</svg>
