<svg xmlns="http://www.w3.org/2000/svg" width="38.448" height="38.448" viewBox="0 0 38.448 38.448">
  <path id="iconmonstr-instagram-14" d="M23.756,10.1c-1.182-.054-1.538-.064-4.532-.064s-3.348.011-4.531.064c-3.042.139-4.458,1.58-4.6,4.6-.053,1.182-.066,1.536-.066,4.531s.013,3.348.066,4.532c.139,3.01,1.549,4.458,4.6,4.6,1.181.053,1.536.066,4.531.066s3.35-.011,4.532-.066c3.042-.138,4.457-1.583,4.6-4.6.053-1.182.064-1.538.064-4.532s-.011-3.348-.064-4.531c-.141-3.017-1.559-4.458-4.6-4.6ZM19.224,24.984a5.758,5.758,0,1,1,5.759-5.759A5.759,5.759,0,0,1,19.224,24.984Zm5.987-10.4a1.346,1.346,0,1,1,1.346-1.346A1.346,1.346,0,0,1,25.211,14.585Zm-2.249,4.639a3.738,3.738,0,1,1-3.738-3.738A3.737,3.737,0,0,1,22.962,19.224ZM19.224,0A19.224,19.224,0,1,0,38.448,19.224,19.225,19.225,0,0,0,19.224,0ZM30.371,23.848c-.184,4.077-2.454,6.336-6.522,6.523-1.2.054-1.58.067-4.625.067s-3.427-.013-4.623-.067c-4.076-.187-6.336-2.449-6.523-6.523-.054-1.2-.067-1.578-.067-4.623s.013-3.427.067-4.623c.187-4.076,2.449-6.336,6.523-6.522,1.2-.056,1.578-.069,4.623-.069s3.428.013,4.625.069c4.077.187,6.339,2.454,6.522,6.522.054,1.2.067,1.578.067,4.623S30.426,22.653,30.371,23.848Z" fill="#f6f6f6"/>
</svg>
